<svg xmlns="http://www.w3.org/2000/svg" viewBox="0 0 300 305" width="300" height="305">
	<defs>
		<clipPath clipPathUnits="userSpaceOnUse" id="cp1">
			<path d="M-94 -479L1106 -479L1106 421L-94 421Z" />
		</clipPath>
		<linearGradient id="grd1" gradientUnits="userSpaceOnUse"  x1="150" y1="1" x2="150" y2="301">
			<stop offset="0" stop-color="#1d0024"  />
			<stop offset="1" stop-color="#100014"  />
		</linearGradient>
		<clipPath clipPathUnits="userSpaceOnUse" id="cp2">
			<path d="M150 301C232.84 301 300 233.84 300 151C300 68.16 232.84 1 150 1C67.16 1 0 68.16 0 151C0 233.84 67.16 301 150 301Z" />
		</clipPath>
		<linearGradient id="grd2" gradientUnits="userSpaceOnUse"  x1="156.861" y1="80" x2="156.861" y2="239.138">
			<stop offset="0" stop-color="#e6864e"  />
			<stop offset="1" stop-color="#eb965e"  />
		</linearGradient>
		<linearGradient id="grd3" gradientUnits="userSpaceOnUse"  x1="150" y1="205" x2="150" y2="305">
			<stop offset="0" stop-color="#fecbb5"  />
			<stop offset="1" stop-color="#fed4c4"  />
		</linearGradient>
		<clipPath clipPathUnits="userSpaceOnUse" id="cp3">
			<path d="M242 240C249.26 256.12 253 305 253 305L47 305C47 305 50.74 256.12 58 240C64.36 225.88 106.24 209.66 118.51 205C125.6 212.93 135.76 218 150 218C164.24 218 174.4 212.93 181.49 205C193.76 209.66 235.64 225.88 242 240Z" />
		</clipPath>
	</defs>
	<style>
		tspan { white-space:pre }
		.shp0 { fill: url(#grd1) } 
		.shp1 { fill: #ffffff } 
		.shp2 { fill: url(#grd2) } 
		.shp3 { fill: #db6f3d } 
		.shp4 { fill: url(#grd3) } 
		.shp5 { fill: #ffa789 } 
	</style>
	<g id="Dribbble preview" clip-path="url(#cp1)">
		<g id="User 03a">
			<path id="Mask" class="shp0" d="M150 301C232.84 301 300 233.84 300 151C300 68.16 232.84 1 150 1C67.16 1 0 68.16 0 151C0 233.84 67.16 301 150 301Z" />
			<g id="Mask by Mask" clip-path="url(#cp2)">
				<path id="hair" class="shp1" d="M199.18 129.13C270.64 70.57 203.18 17.03 130.72 45.56C122.97 48.61 101.49 36.39 81.59 49.27C68.76 57.57 73.75 64.07 68.76 70.58C63.76 77.09 44.49 76.71 40.27 93.6C37.77 103.61 44.69 114.09 43.77 121.63C42.84 129.16 35.54 135.95 35.19 145.9C34.58 163.57 48.39 178.4 66.04 179.02C66.13 196.21 79.73 210.44 97.02 211.05C102.53 211.24 116.5 211.24 128.5 204C158.57 185.86 151.82 167.93 199.18 129.13Z" />
				<path id="face" class="shp2" d="M125 195C125 186 124.69 141.61 124.71 140.86C100 144.5 100.5 97.5 125.5 109C131 112.5 146.5 109 145 80C172 109 203.35 75.18 206.03 102.74C209.71 140.37 206.01 179.76 182.62 179.76C180.39 179.76 177.84 179.51 175 179C175 184.67 175 191.33 175 195C175 205 193 210 193 210C193 210 161.91 239.3 149 239.14C136.09 238.98 107 210 107 210C107 210 125 205 125 195Z" />
				<path id="shade" class="shp3" d="M175 179C154.68 174.59 140.37 163.9 140.37 163.9C140.37 163.9 149 185 174.97 189L175 179Z" />
				<g id="body">
					<path id="Mask" class="shp4" d="M242 240C249.26 256.12 253 305 253 305L47 305C47 305 50.74 256.12 58 240C64.36 225.88 106.24 209.66 118.51 205C125.6 212.93 135.76 218 150 218C164.24 218 174.4 212.93 181.49 205C193.76 209.66 235.64 225.88 242 240Z" />
					<g id="Mask by Mask" clip-path="url(#cp3)">
						<path id="Combined Shape" class="shp5" d="M70 241C73.31 241 76 238.31 76 235C76 231.69 73.31 229 70 229C66.69 229 64 231.69 64 235C64 238.31 66.69 241 70 241ZM110 241C113.31 241 116 238.31 116 235C116 231.69 113.31 229 110 229C106.69 229 104 231.69 104 235C104 238.31 106.69 241 110 241ZM150 241C153.31 241 156 238.31 156 235C156 231.69 153.31 229 150 229C146.69 229 144 231.69 144 235C144 238.31 146.69 241 150 241ZM190 241C193.31 241 196 238.31 196 235C196 231.69 193.31 229 190 229C186.69 229 184 231.69 184 235C184 238.31 186.69 241 190 241ZM230 241C233.31 241 236 238.31 236 235C236 231.69 233.31 229 230 229C226.69 229 224 231.69 224 235C224 238.31 226.69 241 230 241ZM50 221C53.31 221 56 218.31 56 215C56 211.69 53.31 209 50 209C46.69 209 44 211.69 44 215C44 218.31 46.69 221 50 221ZM90 221C93.31 221 96 218.31 96 215C96 211.69 93.31 209 90 209C86.69 209 84 211.69 84 215C84 218.31 86.69 221 90 221ZM210 221C213.31 221 216 218.31 216 215C216 211.69 213.31 209 210 209C206.69 209 204 211.69 204 215C204 218.31 206.69 221 210 221ZM250 221C253.31 221 256 218.31 256 215C256 211.69 253.31 209 250 209C246.69 209 244 211.69 244 215C244 218.31 246.69 221 250 221ZM70 281C73.31 281 76 278.31 76 275C76 271.69 73.31 269 70 269C66.69 269 64 271.69 64 275C64 278.31 66.69 281 70 281ZM110 281C113.31 281 116 278.31 116 275C116 271.69 113.31 269 110 269C106.69 269 104 271.69 104 275C104 278.31 106.69 281 110 281ZM150 281C153.31 281 156 278.31 156 275C156 271.69 153.31 269 150 269C146.69 269 144 271.69 144 275C144 278.31 146.69 281 150 281ZM190 281C193.31 281 196 278.31 196 275C196 271.69 193.31 269 190 269C186.69 269 184 271.69 184 275C184 278.31 186.69 281 190 281ZM230 281C233.31 281 236 278.31 236 275C236 271.69 233.31 269 230 269C226.69 269 224 271.69 224 275C224 278.31 226.69 281 230 281ZM50 261C53.31 261 56 258.31 56 255C56 251.69 53.31 249 50 249C46.69 249 44 251.69 44 255C44 258.31 46.69 261 50 261ZM90 261C93.31 261 96 258.31 96 255C96 251.69 93.31 249 90 249C86.69 249 84 251.69 84 255C84 258.31 86.69 261 90 261ZM130 261C133.31 261 136 258.31 136 255C136 251.69 133.31 249 130 249C126.69 249 124 251.69 124 255C124 258.31 126.69 261 130 261ZM170 261C173.31 261 176 258.31 176 255C176 251.69 173.31 249 170 249C166.69 249 164 251.69 164 255C164 258.31 166.69 261 170 261ZM210 261C213.31 261 216 258.31 216 255C216 251.69 213.31 249 210 249C206.69 249 204 251.69 204 255C204 258.31 206.69 261 210 261ZM250 261C253.31 261 256 258.31 256 255C256 251.69 253.31 249 250 249C246.69 249 244 251.69 244 255C244 258.31 246.69 261 250 261ZM50 301C53.31 301 56 298.31 56 295C56 291.69 53.31 289 50 289C46.69 289 44 291.69 44 295C44 298.31 46.69 301 50 301ZM90 301C93.31 301 96 298.31 96 295C96 291.69 93.31 289 90 289C86.69 289 84 291.69 84 295C84 298.31 86.69 301 90 301ZM130 301C133.31 301 136 298.31 136 295C136 291.69 133.31 289 130 289C126.69 289 124 291.69 124 295C124 298.31 126.69 301 130 301ZM170 301C173.31 301 176 298.31 176 295C176 291.69 173.31 289 170 289C166.69 289 164 291.69 164 295C164 298.31 166.69 301 170 301ZM210 301C213.31 301 216 298.31 216 295C216 291.69 213.31 289 210 289C206.69 289 204 291.69 204 295C204 298.31 206.69 301 210 301ZM250 301C253.31 301 256 298.31 256 295C256 291.69 253.31 289 250 289C246.69 289 244 291.69 244 295C244 298.31 246.69 301 250 301Z" />
					</g>
				</g>
			</g>
		</g>
	</g>
</svg>