<svg xmlns="http://www.w3.org/2000/svg" viewBox="0 0 301 306" width="301" height="306">
	<defs>
		<clipPath clipPathUnits="userSpaceOnUse" id="cp1">
			<path d="M-449 -479L751 -479L751 421L-449 421Z" />
		</clipPath>
		<linearGradient id="grd1" gradientUnits="userSpaceOnUse"  x1="151" y1="1" x2="151" y2="301">
			<stop offset="0" stop-color="#806a6a"  />
			<stop offset="1" stop-color="#665654"  />
		</linearGradient>
		<clipPath clipPathUnits="userSpaceOnUse" id="cp2">
			<path d="M151 301C233.84 301 301 233.84 301 151C301 68.16 233.84 1 151 1C68.16 1 1 68.16 1 151C1 233.84 68.16 301 151 301Z" />
		</clipPath>
		<linearGradient id="grd2" gradientUnits="userSpaceOnUse"  x1="146.122" y1="50.058" x2="146.122" y2="234.784">
			<stop offset="0" stop-color="#f7b186"  />
			<stop offset="1" stop-color="#ffc299"  />
		</linearGradient>
		<clipPath clipPathUnits="userSpaceOnUse" id="cp3">
			<path d="M96 210.78C114.33 224.12 132.67 234.78 151 234.78C169.33 234.78 187.67 224.12 206 210.78C190.89 206.18 183.22 199.32 183 190.19C183.01 188.56 183.02 186.25 183.03 181.91C183.03 181.22 183.03 180.51 183.03 179.79C183.06 168.15 183.11 152.79 183.18 137.19C197.51 118.61 192.25 96.83 187.76 97.37C182.25 98.04 134.54 52.77 125.39 50.46C116.24 48.14 93 55.62 89 76.5C85 97.37 83.33 149.99 98.5 171C102.82 176.98 109.62 179.32 118.9 178.01C118.91 182.38 118.94 184.84 119 189.78C118.88 199.33 111.21 206.19 96 210.78Z" />
		</clipPath>
		<linearGradient id="grd3" gradientUnits="userSpaceOnUse"  x1="140.437" y1="34.392" x2="140.437" y2="155.364">
			<stop offset="0" stop-color="#1d0024"  />
			<stop offset="1" stop-color="#100014"  />
		</linearGradient>
		<linearGradient id="grd4" gradientUnits="userSpaceOnUse"  x1="151" y1="204" x2="151" y2="305.308">
			<stop offset="0" stop-color="#1d0024"  />
			<stop offset="1" stop-color="#100014"  />
		</linearGradient>
		<linearGradient id="grd5" gradientUnits="userSpaceOnUse"  x1="151" y1="206" x2="151" y2="303">
			<stop offset="0" stop-color="#806a6a"  />
			<stop offset="1" stop-color="#665654"  />
		</linearGradient>
		<clipPath clipPathUnits="userSpaceOnUse" id="cp4">
			<path d="M158 211L163 303L139 303L144 211C144 211 148.67 206 151 206C153.33 206 158 211 158 211Z" />
		</clipPath>
		<clipPath clipPathUnits="userSpaceOnUse" id="cp5">
			<path d="M159.14 229.69L143.41 220.61L144 211C147.11 207.67 149.44 206 151 206C152.56 206 154.89 207.67 158 211L159.14 229.69L159.14 229.69Z" />
		</clipPath>
	</defs>
	<style>
		tspan { white-space:pre }
		.shp0 { fill: url(#grd1) } 
		.shp1 { fill: url(#grd2) } 
		.shp2 { fill: #fc9f6a } 
		.shp3 { fill: url(#grd3) } 
		.shp4 { fill: url(#grd4) } 
		.shp5 { fill: url(#grd5) } 
		.shp6 { fill: #645050 } 
		.shp7 { fill: #ffffff } 
	</style>
	<g id="Dribbble preview" clip-path="url(#cp1)">
		<g id="User 07b">
			<path id="Mask" class="shp0" d="M151 301C233.84 301 301 233.84 301 151C301 68.16 233.84 1 151 1C68.16 1 1 68.16 1 151C1 233.84 68.16 301 151 301Z" />
			<g id="Mask by Mask" clip-path="url(#cp2)">
				<g id="Group 10">
					<g id="Group 11">
						<g id="Group 11">
							<g id="Group 2">
								<g id="Group 14">
									<g id="Path 48">
										<path id="Combined Shape" class="shp1" d="M96 210.78C114.33 224.12 132.67 234.78 151 234.78C169.33 234.78 187.67 224.12 206 210.78C190.89 206.18 183.22 199.32 183 190.19C183.01 188.56 183.02 186.25 183.03 181.91C183.03 181.22 183.03 180.51 183.03 179.79C183.06 168.15 183.11 152.79 183.18 137.19C197.51 118.61 192.25 96.83 187.76 97.37C182.25 98.04 134.54 52.77 125.39 50.46C116.24 48.14 93 55.62 89 76.5C85 97.37 83.33 149.99 98.5 171C102.82 176.98 109.62 179.32 118.9 178.01C118.91 182.38 118.94 184.84 119 189.78C118.88 199.33 111.21 206.19 96 210.78Z" />
										<g id="Mask by Combined Shape" clip-path="url(#cp3)">
											<path id="Path 48" class="shp2" d="M119 178C141 175.5 155 166 155 166C155 166 139 186 119 190L119 178Z" />
										</g>
									</g>
									<path id="Path 22" class="shp3" d="M190.5 137.5C197.39 120.93 225 87.18 201.2 66.18C193.2 27.18 149 31.5 119.5 40.5C99.67 46.55 84.7 58.5 81.5 49.5C61.5 66.18 71.52 82.5 84.7 87.18C96.67 91.43 116.9 95.68 151.31 91.68C157.45 90.97 156.17 109.79 159.45 111.83C164.38 114.88 168.2 95.68 181.71 101.45C195.22 107.21 187.2 133.94 172.7 133.94C167.7 133.94 165.2 147.68 178.7 154.18C188.5 159 186.02 148.27 190.5 137.5Z" />
								</g>
							</g>
						</g>
					</g>
				</g>
				<g id="Group 23">
					<path id="Combined Shape" class="shp4" d="M256 241.31C265.52 260.66 271 305.31 271 305.31L31 305.31C31 305.31 36.48 260.66 46 241.31C55.52 221.96 111.1 204.01 111.1 204.01C141.81 216 160.61 216 190.87 204C190.87 204 246.48 221.95 256 241.31Z" />
					<g id="Group 22">
						<path id="Mask" class="shp5" d="M158 211L163 303L139 303L144 211C144 211 148.67 206 151 206C153.33 206 158 211 158 211Z" />
						<g id="Mask by Mask" clip-path="url(#cp4)">
							<path id="Combined Shape" class="shp6" d="M159.14 229.69L143.41 220.61L144 211C147.11 207.67 149.44 206 151 206C152.56 206 154.89 207.67 158 211L159.14 229.69L159.14 229.69Z" />
							<g id="Mask by Combined Shape" clip-path="url(#cp5)">
							</g>
						</g>
					</g>
					<path id="Combined Shape" class="shp7" d="M152 204.19L119 192L110 205L141 224L152 204.19ZM150 204.19L183 192L192 205L161 224L150 204.19Z" />
				</g>
			</g>
		</g>
	</g>
</svg>